<?xml version="1.0" encoding="UTF-8" standalone="no"?>
<!-- Created with Inkscape (http://www.inkscape.org/) -->

<svg
   width="30mm"
   height="30mm"
   viewBox="0 0 30 30"
   version="1.1"
   id="svg5"
   inkscape:version="1.1.1 (3bf5ae0d25, 2021-09-20)"
   sodipodi:docname="certificate.svg"
   xmlns:inkscape="http://www.inkscape.org/namespaces/inkscape"
   xmlns:sodipodi="http://sodipodi.sourceforge.net/DTD/sodipodi-0.dtd"
   xmlns="http://www.w3.org/2000/svg"
   xmlns:svg="http://www.w3.org/2000/svg">
  <sodipodi:namedview
     id="namedview7"
     pagecolor="#ffffff"
     bordercolor="#666666"
     borderopacity="1.0"
     inkscape:pageshadow="2"
     inkscape:pageopacity="0.0"
     inkscape:pagecheckerboard="0"
     inkscape:document-units="mm"
     showgrid="false"
     inkscape:zoom="3.1643098"
     inkscape:cx="97.17759"
     inkscape:cy="28.916258"
     inkscape:window-width="1920"
     inkscape:window-height="1051"
     inkscape:window-x="-9"
     inkscape:window-y="-9"
     inkscape:window-maximized="1"
     inkscape:current-layer="layer1"
     width="38mm" />
  <defs
     id="defs2" />
  <g
     inkscape:label="Layer 1"
     inkscape:groupmode="layer"
     id="layer1">
    <path
       style="fill:#808080;fill-opacity:1;stroke-width:0.0419016"
       d="m 20.112067,28.580172 c -0.03484,-0.03485 -0.0747,-0.143265 -0.08858,-0.240934 -0.01387,-0.09767 -0.01971,-1.096161 -0.01297,-2.218868 l 0.01226,-2.041287 0.377115,0.169608 c 0.803591,0.361415 1.315135,0.496606 2.117927,0.559727 0.856246,0.06732 2.101073,-0.203481 2.967718,-0.645612 l 0.163991,-0.08366 0.02489,0.09283 c 0.01368,0.05106 0.02515,0.973408 0.02546,2.049668 6.33e-4,2.043804 -0.02247,2.379979 -0.163324,2.379979 -0.155442,0 -0.518758,-0.302721 -1.386464,-1.155227 -0.495487,-0.486807 -0.961229,-0.916278 -1.034985,-0.954379 -0.339646,-0.175465 -0.632648,-0.04411 -1.155927,0.518191 -0.17946,0.192844 -0.424584,0.433329 -0.544722,0.534414 -0.120137,0.101085 -0.427633,0.389691 -0.683325,0.641346 -0.255692,0.251657 -0.485327,0.457558 -0.510302,0.457558 -0.02497,0 -0.07392,-0.02851 -0.108761,-0.06335 z m 2.299102,-5.430092 c -1.622166,-0.15589 -3.023885,-1.360015 -3.46613,-2.977527 -0.08263,-0.302235 -0.09517,-0.445334 -0.09302,-1.061646 0.0023,-0.650739 0.01226,-0.744168 0.115511,-1.080573 0.218878,-0.71315 0.558004,-1.268321 1.082096,-1.771457 0.496109,-0.476274 0.974386,-0.756797 1.629301,-0.955631 1.437206,-0.43634 2.958666,-0.05454 4.00655,1.005417 1.062713,1.074954 1.442509,2.626029 0.99257,4.053615 -0.573347,1.819142 -2.339433,2.97303 -4.266882,2.787802 z m -0.305962,-2.389419 c 0.523473,-0.251124 0.647411,-0.295268 0.778537,-0.277298 0.08577,0.01175 0.419931,0.144001 0.742573,0.293884 0.445696,0.207046 0.590009,0.257884 0.600715,0.211617 0.0077,-0.03349 -0.01582,-0.236373 -0.05238,-0.450846 -0.07757,-0.4551 -0.08649,-0.953728 -0.01939,-1.084177 0.0259,-0.05034 0.244611,-0.293309 0.486039,-0.539936 0.241426,-0.246626 0.430806,-0.472868 0.420841,-0.502758 -0.01661,-0.04982 -0.615981,-0.188565 -1.129091,-0.26136 -0.107846,-0.0153 -0.243827,-0.06537 -0.302181,-0.111276 -0.05835,-0.0459 -0.220571,-0.30421 -0.360485,-0.574022 -0.139912,-0.26981 -0.291738,-0.537705 -0.337391,-0.595319 l -0.083,-0.104754 -0.08526,0.101422 c -0.04689,0.05578 -0.197491,0.321564 -0.334668,0.590628 -0.137179,0.269065 -0.287734,0.523889 -0.334569,0.566275 -0.05917,0.05354 -0.303586,0.116715 -0.800875,0.20699 l -0.715721,0.129929 0.505672,0.591612 0.50567,0.591613 -0.08129,0.705846 c -0.09203,0.799055 -0.09281,0.8106 -0.0544,0.8106 0.01544,0 0.308232,-0.1344 0.650655,-0.29867 z M 3.3668865,22.275242 c -0.682241,-0.0265 -0.888855,-0.07248 -1.242899,-0.276566 -0.557423,-0.321326 -0.866748,-0.854945 -0.973509,-1.679408 -0.06755,-0.521652 -0.0759,-16.5932079 -0.0088,-16.9424209 0.121467,-0.632191 0.56042,-1.239173 1.089151,-1.506076 0.582021,-0.293803 -0.427878,-0.270446 12.3447435,-0.285508 8.223065,-0.0097 11.624942,-3.64e-4 11.879111,0.03259 0.500334,0.06487 0.899784,0.262393 1.261639,0.623866 0.152324,0.152163 0.328965,0.379302 0.392535,0.504753 0.254539,0.502306 0.24511,0.234716 0.262859,7.4603409 0.0089,3.629728 0.0029,6.79749 -0.01329,7.039472 l -0.0295,0.439967 -0.07525,-0.263345 c -0.227389,-0.795726 -0.781543,-1.628446 -1.720902,-2.585965 l -0.328855,-0.335213 -3.17e-4,-2.136983 c -1.58e-4,-1.17534 -0.01288,-3.5935879 -0.02817,-5.3738829 l -0.02783,-3.2369 H 14.715354 3.2831085 v 8.1917669 8.191767 h 6.9956695 6.995672 l 0.0266,0.157132 c 0.06996,0.413268 0.219747,0.835003 0.484185,1.36323 0.159029,0.317667 0.289143,0.595789 0.289143,0.618049 0,0.04417 -13.5691115,0.04356 -14.7074665,-6.33e-4 z m 3.5017173,-6.140901 c -0.08804,-0.03027 -0.1812897,-0.07622 -0.2072117,-0.102119 -0.0307,-0.03067 -0.04713,-0.265076 -0.04713,-0.67226 0,-0.594652 0.0047,-0.62984 0.09543,-0.720753 l 0.09543,-0.09558 3.3495949,-0.01121 c 3.156343,-0.01056 4.481266,0.01576 4.556016,0.09051 0.0421,0.0421 0.04248,1.391185 4.75e-4,1.433257 -0.09168,0.09168 -0.761186,0.111713 -4.076621,0.122 -2.8912825,0.009 -3.6375552,3.17e-4 -3.7659152,-0.04384 z M 6.7131821,12.682668 c -0.09591,-0.07771 -0.09892,-0.09904 -0.09892,-0.701852 0,-0.69769 0.02742,-0.792159 0.2414417,-0.831772 0.205912,-0.03811 15.8805612,-0.0039 15.9590702,0.03484 0.05637,0.02781 0.07322,0.138233 0.09586,0.62825 0.03046,0.659268 0.0041,0.821288 -0.146223,0.897679 -0.07974,0.04053 -1.82122,0.05189 -8.027073,0.05238 -7.7426392,6.33e-4 -7.9275169,-0.0013 -8.0241579,-0.07952 z M 7.3613865,9.3313481 c -0.3726407,-0.01398 -0.6920994,-0.04005 -0.7099114,-0.05792 -0.04254,-0.0427 -0.04653,-1.138905 -0.0048,-1.334666 0.03174,-0.149076 0.03701,-0.152518 0.2723617,-0.177761 0.400384,-0.04294 11.5777632,-0.08199 13.7652642,-0.04808 1.796851,0.02785 2.054434,0.03995 2.12857,0.10002 0.07672,0.06216 0.0851,0.123281 0.09275,0.675908 0.0099,0.713256 -0.01064,0.774362 -0.273494,0.81446 -0.232247,0.03543 -14.3813458,0.06141 -15.2706955,0.02804 z"
       id="path4214" />
  </g>
</svg>
