<?xml version="1.0" encoding="UTF-8" standalone="no"?>
<!-- Created with Inkscape (http://www.inkscape.org/) -->

<svg
   width="30mm"
   height="30mm"
   viewBox="0 0 30 30"
   version="1.1"
   id="svg5"
   inkscape:version="1.1.1 (3bf5ae0d25, 2021-09-20)"
   sodipodi:docname="event.svg"
   xmlns:inkscape="http://www.inkscape.org/namespaces/inkscape"
   xmlns:sodipodi="http://sodipodi.sourceforge.net/DTD/sodipodi-0.dtd"
   xmlns="http://www.w3.org/2000/svg"
   xmlns:svg="http://www.w3.org/2000/svg">
  <sodipodi:namedview
     id="namedview7"
     pagecolor="#ffffff"
     bordercolor="#666666"
     borderopacity="1.0"
     inkscape:pageshadow="2"
     inkscape:pageopacity="0.0"
     inkscape:pagecheckerboard="0"
     inkscape:document-units="mm"
     showgrid="false"
     inkscape:zoom="3.1643098"
     inkscape:cx="80.744306"
     inkscape:cy="52.302085"
     inkscape:window-width="1920"
     inkscape:window-height="1051"
     inkscape:window-x="-9"
     inkscape:window-y="-9"
     inkscape:window-maximized="1"
     inkscape:current-layer="layer1"
     width="30mm" />
  <defs
     id="defs2" />
  <g
     inkscape:label="Layer 1"
     inkscape:groupmode="layer"
     id="layer1">
    <path
       style="fill:#808080;fill-opacity:1;stroke-width:0.0198301"
       d="m 14.972328,29.5505 c -0.18526,-0.03293 -0.488457,-0.147322 -0.659211,-0.248718 -0.221869,-0.131747 -0.528002,-0.438009 -0.652001,-0.652274 -0.195497,-0.337813 -0.261993,-0.580924 -0.262989,-0.961496 -5.68e-4,-0.212257 0.0084,-0.304169 0.04334,-0.443738 0.137396,-0.549126 0.5069,-1.001477 1.025183,-1.255048 l 0.178472,-0.08732 0.0099,-1.729483 0.0099,-1.729484 0.05886,-0.106261 c 0.06719,-0.121299 0.172132,-0.218573 0.305301,-0.282982 0.142485,-0.06892 0.372247,-0.06517 0.5223,0.0085 0.135504,0.06654 0.275418,0.214993 0.326239,0.346143 0.0342,0.08828 0.0368,0.198874 0.04201,1.792391 l 0.0056,1.698312 0.184344,0.09149 c 0.447598,0.222134 0.820576,0.647769 0.974855,1.112477 0.209421,0.630801 0.04547,1.364795 -0.412842,1.84824 -0.266429,0.281041 -0.576601,0.471221 -0.915974,0.561621 -0.18303,0.04876 -0.606251,0.06908 -0.783284,0.03762 z m 0.565473,-1.305244 c 0.378422,-0.167012 0.485128,-0.663933 0.209749,-0.97678 -0.1165,-0.132351 -0.234601,-0.183375 -0.444487,-0.192033 -0.163485,-0.0067 -0.183223,-0.0032 -0.301703,0.0552 -0.487948,0.240218 -0.441505,0.950683 0.07418,1.13476 0.134784,0.04812 0.325069,0.03941 0.462264,-0.02113 z M 3.6493165,23.887772 c -0.8158122,-0.15762 -1.439343,-0.786966 -1.5676361,-1.582251 -0.033696,-0.20886 -0.013842,-0.592427 0.040544,-0.783347 0.2935189,-1.030464 1.3716473,-1.630554 2.3661422,-1.316998 0.1961349,0.06184 0.3586085,0.141296 0.5238423,0.256182 l 0.1235052,0.08588 1.4629062,-0.894579 c 0.8045978,-0.492018 1.5053869,-0.91099 1.5573107,-0.931048 0.287462,-0.111054 0.6226679,0.02393 0.7682041,0.309353 0.061604,0.120815 0.069346,0.153119 0.068908,0.287391 -5.98e-4,0.179826 -0.059628,0.322305 -0.1837745,0.443517 -0.042425,0.04142 -0.7322007,0.475432 -1.5328394,0.964467 l -1.4557073,0.889152 0.0052,0.0667 c 0.00284,0.03668 0.00617,0.18717 0.00731,0.334409 0.00187,0.228444 -0.00528,0.296116 -0.048748,0.461412 -0.1449328,0.551393 -0.5338722,1.01527 -1.0519568,1.254639 -0.2609232,0.120553 -0.4058227,0.151766 -0.7361971,0.158576 -0.1635986,0.0034 -0.3197612,0.0018 -0.347027,-0.0034 z m 0.5143023,-1.289523 c 0.2717905,-0.08778 0.4532418,-0.400342 0.399905,-0.688869 -0.072022,-0.389587 -0.4474175,-0.606473 -0.8298524,-0.479447 -0.3143852,0.104424 -0.484225,0.487085 -0.3610763,0.813535 0.115225,0.305444 0.4620872,0.461015 0.7910237,0.354781 z m 22.0626152,1.270459 c -0.575945,-0.128224 -1.085017,-0.536814 -1.330319,-1.067741 -0.112534,-0.243564 -0.150251,-0.408383 -0.161346,-0.705053 -0.0056,-0.147238 -0.0016,-0.313292 0.0086,-0.369009 l 0.01871,-0.101306 -1.459255,-0.890202 c -0.802591,-0.489613 -1.495974,-0.923691 -1.54085,-0.964618 -0.169208,-0.15432 -0.235403,-0.431889 -0.158275,-0.66367 0.04341,-0.130437 0.182516,-0.287708 0.317056,-0.358447 0.08811,-0.04632 0.124509,-0.05325 0.279755,-0.0533 0.144582,-3.9e-5 0.193534,0.008 0.257792,0.04245 0.04362,0.02336 0.729551,0.439632 1.524275,0.925032 l 1.444957,0.882545 0.176097,-0.115631 c 0.319563,-0.209836 0.631061,-0.302447 1.019,-0.302955 0.527675,-6.88e-4 0.98339,0.199116 1.360444,0.59649 0.39019,0.411217 0.572753,0.941337 0.511954,1.486585 -0.08621,0.773131 -0.628478,1.41087 -1.387895,1.632238 -0.198279,0.0578 -0.675855,0.07222 -0.880797,0.02659 z m 0.676359,-1.302463 c 0.127741,-0.06541 0.253577,-0.206782 0.294964,-0.331387 0.04136,-0.124513 0.04146,-0.311692 2.25e-4,-0.435778 -0.03825,-0.115151 -0.181061,-0.283304 -0.286141,-0.336913 -0.174753,-0.08915 -0.404949,-0.08875 -0.590418,0.0011 -0.111067,0.05377 -0.252266,0.212962 -0.291801,0.328991 -0.03586,0.105236 -0.04113,0.298258 -0.01109,0.406387 0.04721,0.169945 0.232855,0.359792 0.40319,0.412297 0.0342,0.01057 0.133562,0.01652 0.220815,0.01328 0.124355,-0.0046 0.180599,-0.01713 0.260236,-0.05791 z M 10.430547,20.722678 c -0.161417,-0.08148 -0.21307,-0.244365 -0.177072,-0.558413 0.04316,-0.376611 0.188635,-0.674943 0.465284,-0.954232 0.318662,-0.321706 0.680649,-0.523638 1.578822,-0.880731 0.641654,-0.255106 1.026307,-0.432907 1.225115,-0.566293 0.184507,-0.123792 0.360674,-0.303536 0.435996,-0.444854 l 0.06179,-0.11592 v -0.614109 -0.614109 l -0.104104,-0.06951 c -0.159714,-0.106624 -0.436841,-0.357135 -0.582886,-0.526899 -0.2533,-0.294437 -0.399053,-0.563559 -0.443367,-0.818644 -0.02118,-0.121914 -0.02694,-0.131938 -0.08861,-0.154239 -0.08863,-0.03205 -0.221367,-0.179855 -0.279443,-0.311175 -0.07066,-0.159788 -0.133121,-0.488953 -0.122466,-0.645448 0.01004,-0.146981 0.07787,-0.315543 0.159447,-0.396017 l 0.05156,-0.05086 -0.04799,-0.17719 c -0.10961,-0.404684 -0.152723,-0.708715 -0.162912,-1.148866 -0.0083,-0.359443 -0.0041,-0.449224 0.03121,-0.656043 0.173392,-1.01691 0.756105,-1.6796166 1.769463,-2.012374 0.376622,-0.123671 0.972903,-0.2166138 1.390886,-0.2167996 l 0.152919,-5.98e-5 0.02038,0.074365 c 0.01121,0.040898 0.04961,0.1814466 0.08533,0.3123253 l 0.06495,0.237961 0.220871,0.013829 c 1.618678,0.1013702 2.378333,1.5788211 1.819638,3.5390221 -0.0089,0.03101 -8.94e-4,0.04899 0.02867,0.06482 0.06344,0.03396 0.136105,0.17682 0.16113,0.316804 0.03617,0.202322 -0.02275,0.5589 -0.129683,0.784955 -0.06003,0.1269 -0.18517,0.257432 -0.275311,0.287182 -0.06072,0.02004 -0.06629,0.02918 -0.07621,0.125085 -0.03228,0.312175 -0.337672,0.769437 -0.774889,1.160236 -0.08896,0.07952 -0.203916,0.173221 -0.255441,0.208217 l -0.09368,0.06363 -5.07e-4,0.601109 -5.1e-4,0.60111 0.05453,0.112092 c 0.07379,0.151657 0.254216,0.339944 0.451669,0.471325 0.218613,0.14546 0.508312,0.280087 1.149614,0.534235 0.294478,0.116701 0.660343,0.272664 0.813036,0.346582 0.861559,0.417079 1.262093,0.908114 1.312028,1.608485 0.01943,0.27267 -0.06191,0.445636 -0.232649,0.494599 -0.04344,0.01246 -1.774124,0.01943 -4.817984,0.01943 h -4.750207 l -0.0884,-0.04463 z M 10.044534,12.541917 C 9.9899996,12.521756 8.8620848,11.857007 7.5380516,11.064708 L 5.1307185,9.6241639 5.0725799,9.6730817 C 4.9732279,9.7566831 4.7423634,9.8824492 4.5784405,9.9422729 4.2719017,10.054146 3.9553663,10.083928 3.6469542,10.029911 3.2443685,9.9594114 2.9422317,9.8048285 2.6407715,9.5151255 2.3927204,9.2767479 2.2324548,9.0144062 2.1285333,8.6766307 2.0792001,8.5162828 2.0749116,8.4754208 2.0749116,8.1652448 c 0,-0.3101202 0.0043,-0.3510559 0.053581,-0.5112568 0.3551993,-1.1544357 1.6005072,-1.7080003 2.6591169,-1.1820309 0.5146053,0.2556809 0.8748839,0.7155392 1.0158981,1.2966851 0.030552,0.1259167 0.042274,0.5098013 0.022307,0.7307015 -0.00495,0.054994 0.057756,0.094034 2.3943425,1.4900367 1.319695,0.7884596 2.4336719,1.4663626 2.4755029,1.5064516 0.172896,0.165695 0.234519,0.474538 0.13754,0.689322 -0.06,0.132881 -0.205153,0.28033 -0.32834,0.333528 -0.141631,0.06116 -0.331798,0.07077 -0.460331,0.02324 z M 4.1954158,8.7412747 C 4.3849636,8.6620835 4.5421018,8.4499207 4.572314,8.2324131 4.5886093,8.1151171 4.5398367,7.9204327 4.4669992,7.8119752 4.2546899,7.4958535 3.782745,7.4514932 3.5120258,7.7222124 3.2827381,7.9515005 3.2697903,8.3329248 3.4832368,8.5703292 c 0.095257,0.1059513 0.1597401,0.1481609 0.2949762,0.1931 0.098159,0.032612 0.3134811,0.021186 0.4172036,-0.022147 z M 20.114922,12.540742 c -0.124572,-0.04305 -0.228214,-0.119546 -0.304335,-0.224632 -0.09535,-0.13162 -0.123951,-0.232339 -0.115455,-0.406536 0.0089,-0.180688 0.05966,-0.300006 0.17642,-0.414026 0.04167,-0.04068 1.132461,-0.704757 2.469282,-1.5032887 l 2.394651,-1.430412 0.0029,-0.3767727 c 0.0025,-0.326802 0.0086,-0.3960665 0.04675,-0.5222491 0.165264,-0.5472291 0.534265,-0.9761307 1.046202,-1.2160321 0.279317,-0.1308928 0.427943,-0.1617769 0.78136,-0.1623675 0.369113,-6.268e-4 0.51677,0.032494 0.827072,0.1854489 0.531462,0.2619758 0.901558,0.7342008 1.029649,1.3137877 0.05135,0.2323524 0.0424,0.5951272 -0.02065,0.8376754 -0.141078,0.5426566 -0.510103,0.9942213 -1.013123,1.2397274 -0.302947,0.1478577 -0.475475,0.1867177 -0.82295,0.1853627 -0.230177,-8.93e-4 -0.319184,-0.0097 -0.446178,-0.04404 C 25.973623,9.950205 25.717843,9.8302793 25.551661,9.7141098 l -0.123364,-0.086239 -2.417025,1.4453682 c -1.407548,0.841707 -2.457867,1.457656 -2.514816,1.47479 -0.128587,0.03869 -0.255432,0.03626 -0.381452,-0.0073 z M 26.850574,8.7432982 C 27.023826,8.6698202 27.15784,8.5229611 27.20915,8.3503445 27.21996,8.3139735 27.22889,8.2234881 27.22902,8.1492528 27.229409,7.9130732 27.103347,7.7087224 26.893838,7.605838 26.797368,7.558468 26.756941,7.550513 26.612615,7.550513 c -0.201343,0 -0.317764,0.047402 -0.449614,0.1830633 -0.249897,0.2571275 -0.211485,0.7303854 0.07542,0.929213 0.17996,0.1247132 0.430291,0.1576369 0.612152,0.080515 z M 15.051643,7.5060449 C 14.9932,7.4854676 14.921297,7.4329832 14.843238,7.3539269 14.6437,7.1518272 14.654829,7.252215 14.654943,5.6554247 l 9.7e-5,-1.3795024 -0.105855,-0.043875 C 14.249829,4.1079727 13.903951,3.8251474 13.723757,3.5570968 13.606701,3.3829671 13.496482,3.140855 13.442833,2.9400061 c -0.06354,-0.237853 -0.06414,-0.6291075 -0.0014,-0.8800025 0.179501,-0.7174111 0.744938,-1.26039032 1.481277,-1.42244717 0.190835,-0.0419972 0.582369,-0.0325905 0.792014,0.0190332 0.687081,0.16919154 1.225822,0.70428307 1.410527,1.40097407 0.05716,0.2155985 0.05334,0.6785379 -0.0074,0.900946 -0.150542,0.5509344 -0.520164,0.9926477 -1.038457,1.241 l -0.145316,0.069633 -0.0099,1.3928085 -0.0099,1.3928082 -0.05317,0.1134347 c -0.06963,0.1485688 -0.20585,0.2795617 -0.344754,0.3315325 -0.131948,0.049366 -0.334596,0.052132 -0.464689,0.0063 z m 0.495574,-4.4488722 c 0.226074,-0.097255 0.372581,-0.3491781 0.35202,-0.6053151 -0.02731,-0.3401117 -0.285115,-0.5724782 -0.633629,-0.5710883 -0.111912,4.485e-4 -0.154348,0.011388 -0.266961,0.068829 -0.22598,0.1152739 -0.335431,0.304439 -0.332098,0.5739713 0.0054,0.4375728 0.461502,0.7139198 0.880668,0.5336001 z"
       id="path3328" />
  </g>
</svg>
