<?xml version="1.0" encoding="UTF-8" standalone="no"?>
<!-- Created with Inkscape (http://www.inkscape.org/) -->

<svg
   width="30mm"
   height="30mm"
   viewBox="0 0 30 30"
   version="1.1"
   id="svg5"
   inkscape:version="1.1.1 (3bf5ae0d25, 2021-09-20)"
   sodipodi:docname="event.svg"
   xmlns:inkscape="http://www.inkscape.org/namespaces/inkscape"
   xmlns:sodipodi="http://sodipodi.sourceforge.net/DTD/sodipodi-0.dtd"
   xmlns="http://www.w3.org/2000/svg"
   xmlns:svg="http://www.w3.org/2000/svg">
  <sodipodi:namedview
     id="namedview7"
     pagecolor="#ffffff"
     bordercolor="#666666"
     borderopacity="1.0"
     inkscape:pageshadow="2"
     inkscape:pageopacity="0.0"
     inkscape:pagecheckerboard="0"
     inkscape:document-units="mm"
     showgrid="false"
     inkscape:zoom="3.1643098"
     inkscape:cx="80.428283"
     inkscape:cy="52.302086"
     inkscape:window-width="1920"
     inkscape:window-height="1051"
     inkscape:window-x="-9"
     inkscape:window-y="-9"
     inkscape:window-maximized="1"
     inkscape:current-layer="layer1"
     width="38mm" />
  <defs
     id="defs2" />
  <g
     inkscape:label="Layer 1"
     inkscape:groupmode="layer"
     id="layer1">
    <path
       style="fill:#808080;fill-opacity:1;stroke-width:0.0244114"
       d="m 16.487417,36.595785 c -0.22806,-0.04054 -0.601302,-0.181357 -0.811505,-0.306177 -0.273126,-0.162185 -0.649984,-0.539201 -0.80263,-0.802966 -0.240661,-0.415856 -0.322519,-0.715132 -0.323746,-1.183626 -6.99e-4,-0.261295 0.01037,-0.374439 0.05336,-0.546253 0.169138,-0.675987 0.624007,-1.232844 1.262027,-1.544995 l 0.219703,-0.10749 0.01221,-2.129037 0.01221,-2.129038 0.07246,-0.130816 c 0.08271,-0.149322 0.211899,-0.269069 0.375832,-0.348358 0.175403,-0.08484 0.458247,-0.08023 0.642965,0.01048 0.166809,0.08191 0.339047,0.264662 0.401608,0.426111 0.04211,0.108667 0.0453,0.244819 0.05172,2.206478 l 0.0068,2.090665 0.226932,0.112624 c 0.551003,0.273454 1.010148,0.79742 1.20007,1.369488 0.257803,0.776532 0.05597,1.680097 -0.508219,2.27523 -0.327981,0.345968 -0.709809,0.580083 -1.127586,0.691369 -0.225315,0.06002 -0.74631,0.08504 -0.964243,0.04631 z m 0.696112,-1.606787 c 0.465846,-0.205597 0.597205,-0.81732 0.258206,-1.202442 -0.143414,-0.162926 -0.288799,-0.225739 -0.547175,-0.236397 -0.201253,-0.0083 -0.225551,-0.0039 -0.371404,0.06795 -0.600676,0.295713 -0.543504,1.170314 0.09132,1.396916 0.165923,0.05923 0.400168,0.04852 0.569058,-0.02602 z M 2.5485061,29.624825 c -1.004285,-0.194034 -1.77186704,-0.968774 -1.92979904,-1.94779 -0.04148,-0.257111 -0.01704,-0.729293 0.04991,-0.964319 0.36132904,-1.268528 1.68853204,-2.007253 2.91278004,-1.621258 0.241447,0.07612 0.441456,0.173939 0.644863,0.315366 l 0.152038,0.105711 1.800874,-1.101249 c 0.99048,-0.605686 1.85317,-1.121451 1.917089,-1.146144 0.353873,-0.13671 0.76652,0.02946 0.945679,0.380821 0.07584,0.148727 0.08537,0.188494 0.08483,0.353786 -7.36e-4,0.22137 -0.07341,0.396766 -0.226231,0.54598 -0.05222,0.05099 -0.901358,0.585269 -1.886965,1.187283 l -1.792012,1.09457 0.0064,0.08211 c 0.0035,0.04516 0.0076,0.230411 0.009,0.411666 0.0023,0.281219 -0.0065,0.364526 -0.06001,0.568009 -0.178416,0.678778 -0.65721,1.249822 -1.294985,1.544492 -0.321203,0.148404 -0.499578,0.186828 -0.906277,0.195211 -0.201394,0.0042 -0.393634,0.0022 -0.427199,-0.0042 z m 0.633119,-1.587434 c 0.334581,-0.108057 0.557952,-0.492832 0.492293,-0.848015 -0.08866,-0.479592 -0.550782,-0.746584 -1.021569,-0.590212 -0.387016,0.128545 -0.596093,0.599615 -0.444494,1.001483 0.141845,0.376008 0.568841,0.56752 0.97377,0.436744 z m 27.1596309,1.563966 c -0.709002,-0.157846 -1.335682,-0.660832 -1.637656,-1.314416 -0.138531,-0.299833 -0.184962,-0.502729 -0.198621,-0.867937 -0.0068,-0.181255 -0.002,-0.385671 0.01071,-0.454259 l 0.02303,-0.124709 -1.79638,-1.095861 c -0.98801,-0.602725 -1.841581,-1.137086 -1.896824,-1.187468 -0.2083,-0.189972 -0.289788,-0.531666 -0.194842,-0.816995 0.05344,-0.160571 0.224683,-0.354175 0.390304,-0.441256 0.10846,-0.05703 0.153274,-0.06556 0.344386,-0.06561 0.177983,-4.9e-5 0.238245,0.0099 0.317348,0.05225 0.0537,0.02876 0.898096,0.541198 1.876421,1.138737 l 1.778777,1.086436 0.216781,-0.142345 c 0.393389,-0.258314 0.776851,-0.37232 1.254414,-0.372946 0.649582,-8.46e-4 1.210577,0.245118 1.67474,0.734295 0.480334,0.506219 0.705074,1.158809 0.630229,1.830023 -0.106126,0.951743 -0.773673,1.736816 -1.708534,2.009326 -0.244087,0.07115 -0.831993,0.0889 -1.084283,0.03273 z m 0.832616,-1.603364 c 0.157251,-0.08052 0.312158,-0.254555 0.363107,-0.407946 0.05091,-0.153279 0.05104,-0.383701 2.77e-4,-0.536453 -0.04709,-0.141754 -0.22289,-0.348755 -0.352246,-0.414749 -0.215126,-0.109749 -0.498503,-0.10925 -0.72682,0.0013 -0.136726,0.06619 -0.310546,0.262161 -0.359214,0.404997 -0.04414,0.129551 -0.05063,0.367162 -0.01366,0.500272 0.05811,0.209206 0.286651,0.442913 0.496337,0.507547 0.0421,0.01297 0.164419,0.02033 0.271829,0.01635 0.153084,-0.0057 0.222322,-0.02109 0.320357,-0.07129 z m -20.2775,-2.269478 c -0.198709,-0.100297 -0.262294,-0.300819 -0.21798,-0.68742 0.05314,-0.463617 0.232214,-0.830871 0.572775,-1.174683 0.392281,-0.396028 0.837897,-0.644611 1.94357,-1.084201 0.789891,-0.314043 1.26341,-0.53292 1.508147,-0.697122 0.227133,-0.15239 0.443999,-0.373661 0.536721,-0.547625 l 0.07606,-0.142702 v -0.755983 -0.755983 l -0.12816,-0.08556 c -0.196612,-0.131261 -0.537762,-0.439643 -0.717547,-0.648625 -0.31182,-0.36246 -0.491245,-0.693756 -0.545796,-1.007772 -0.02607,-0.150079 -0.03316,-0.162419 -0.109082,-0.189872 -0.10911,-0.03945 -0.272507,-0.221407 -0.344,-0.383065 -0.08699,-0.196702 -0.163876,-0.601913 -0.15076,-0.794562 0.01232,-0.180936 0.09586,-0.388441 0.196283,-0.487507 l 0.06346,-0.06261 -0.05908,-0.218126 c -0.134934,-0.498176 -0.188007,-0.872446 -0.20055,-1.414283 -0.01024,-0.442484 -0.005,-0.553006 0.03843,-0.807605 0.21345,-1.251841 0.930784,-2.067651 2.178253,-2.477283 0.463631,-0.152242 1.197667,-0.266658 1.712215,-0.266886 l 0.188247,-7.4e-5 0.02509,0.09154 c 0.0138,0.05035 0.06107,0.223365 0.105042,0.38448 l 0.07995,0.292936 0.271898,0.01703 c 1.992634,0.124786 2.927787,1.943569 2.24002,4.356625 -0.01088,0.03818 -0.0011,0.06031 0.0353,0.07979 0.0781,0.0418 0.167549,0.217669 0.198355,0.389994 0.04453,0.249063 -0.028,0.688019 -0.159643,0.966298 -0.0739,0.156217 -0.227949,0.316906 -0.338915,0.353528 -0.07475,0.02467 -0.08161,0.03593 -0.09382,0.153983 -0.03974,0.384296 -0.415682,0.947197 -0.953907,1.42828 -0.109521,0.0979 -0.251026,0.213239 -0.314455,0.25632 l -0.115325,0.07833 -6.25e-4,0.739981 -6.26e-4,0.739981 0.06713,0.137988 c 0.09083,0.186693 0.312947,0.41848 0.556017,0.580213 0.269117,0.179064 0.625745,0.344793 1.415203,0.657656 0.362509,0.143663 0.812899,0.335656 1.000867,0.426651 1.060602,0.513435 1.553668,1.117912 1.61514,1.980086 0.02393,0.335664 -0.07622,0.548588 -0.286397,0.608863 -0.05347,0.01534 -2.18399,0.02393 -5.931059,0.02393 h -5.847622 l -0.10882,-0.05493 z M 10.42118,15.657794 C 10.35405,15.632974 8.9655541,14.814653 7.3356361,13.839313 l -2.963487,-1.773346 -0.07157,0.06022 c -0.122305,0.102913 -0.406505,0.257736 -0.608298,0.331381 -0.377357,0.137719 -0.76702,0.174382 -1.146683,0.107891 -0.495593,-0.08679 -0.867531,-0.277088 -1.238636,-0.633721 C 1.0016051,11.63829 0.80431406,11.31534 0.67638406,10.89953 c -0.06073,-0.197393 -0.06601,-0.247694 -0.06601,-0.629529 0,-0.3817657 0.0053,-0.4321587 0.06596,-0.6293707 0.43725904,-1.42114 1.97026404,-2.102592 3.27343904,-1.45511 0.633492,0.31475 1.077004,0.880847 1.250596,1.596253 0.03761,0.155006 0.05204,0.6275787 0.02746,0.8995117 -0.0061,0.0677 0.0711,0.115758 2.947495,1.834274 1.624578,0.970613 2.9959109,1.805128 3.0474069,1.854479 0.21284,0.203975 0.2887,0.584169 0.169316,0.848573 -0.07386,0.163579 -0.25255,0.345093 -0.404195,0.410581 -0.174351,0.07529 -0.408453,0.08711 -0.56668,0.0286 z M 3.2207681,10.979108 c 0.233338,-0.09749 0.426779,-0.358664 0.463971,-0.626421 0.02006,-0.144394 -0.03998,-0.3840557 -0.129645,-0.5175697 -0.261358,-0.389154 -0.842334,-0.443763 -1.175596,-0.110502 -0.282259,0.2822597 -0.298198,0.7518027 -0.03544,1.0440537 0.117263,0.130424 0.196644,0.18239 0.363123,0.237711 0.120836,0.04015 0.385903,0.02608 0.513588,-0.02727 z m 19.5973099,4.677241 c -0.15335,-0.05299 -0.280937,-0.147165 -0.374644,-0.276528 -0.117373,-0.162028 -0.152586,-0.286016 -0.142128,-0.500457 0.01085,-0.22243 0.07344,-0.369314 0.217178,-0.509675 0.05129,-0.05008 1.394088,-0.867573 3.039748,-1.850586 l 2.947876,-1.760874 0.0035,-0.463817 c 0.003,-0.4023017 0.01064,-0.4875687 0.05755,-0.6429017 0.203445,-0.673653 0.657695,-1.201642 1.287901,-1.496967 0.343847,-0.161132 0.526809,-0.199151 0.961874,-0.199878 0.454388,-7.72e-4 0.636158,0.04 1.018147,0.228292 0.654243,0.322498 1.10984,0.90382 1.267523,1.617306 0.06321,0.2860327 0.0522,0.7326167 -0.02542,1.0311997 -0.17367,0.668025 -0.627949,1.223912 -1.247179,1.526136 -0.372934,0.182017 -0.585321,0.229855 -1.013072,0.228187 -0.283353,-0.0011 -0.392923,-0.01192 -0.549256,-0.05421 -0.237457,-0.06424 -0.552328,-0.211872 -0.756903,-0.35488 l -0.151865,-0.106162 -2.975417,1.779284 c -1.732727,1.036162 -3.025696,1.794411 -3.095801,1.815503 -0.158295,0.04763 -0.314443,0.04464 -0.469578,-0.009 z m 8.291756,-4.67475 c 0.213277,-0.09045 0.378252,-0.27124 0.441416,-0.483736 0.01331,-0.04477 0.02431,-0.156163 0.02446,-0.247548 4.78e-4,-0.2907437 -0.154707,-0.5423047 -0.412618,-0.6689577 -0.118759,-0.05832 -0.168524,-0.06811 -0.346193,-0.06811 -0.247858,0 -0.391176,0.05835 -0.553485,0.225356 -0.307631,0.3165307 -0.260344,0.8991237 0.09285,1.1438847 0.221536,0.153526 0.5297,0.194055 0.753575,0.09911 z M 16.585056,9.4585093 c -0.07195,-0.02533 -0.16046,-0.08994 -0.256551,-0.187261 -0.245637,-0.248791 -0.231937,-0.125214 -0.231797,-2.0909 l 1.2e-4,-1.698202 -0.130313,-0.05401 c -0.368512,-0.15274 -0.794297,-0.500905 -1.01612,-0.830882 -0.144099,-0.214358 -0.279782,-0.512404 -0.345824,-0.759654 -0.07821,-0.292803 -0.07896,-0.774447 -0.0017,-1.083305 0.220971,-0.883151 0.917038,-1.551572 1.823489,-1.751068 0.234923,-0.0517 0.716911,-0.04012 0.974989,0.02343 0.845814,0.208279 1.509017,0.86699 1.736395,1.724634 0.07037,0.265407 0.06566,0.835297 -0.0091,1.109087 -0.185321,0.678214 -0.640334,1.221974 -1.278366,1.527702 l -0.178888,0.08572 -0.01221,1.714582 -0.0122,1.714582 -0.06545,0.139641 c -0.08572,0.182893 -0.253407,0.344149 -0.424402,0.408126 -0.162432,0.06077 -0.411896,0.06417 -0.572044,0.0078 z m 0.610064,-5.476674 c 0.278303,-0.119723 0.458656,-0.429847 0.433345,-0.745158 -0.03361,-0.418686 -0.350983,-0.704735 -0.780013,-0.703024 -0.137766,5.52e-4 -0.190006,0.01402 -0.328636,0.08473 -0.278187,0.141905 -0.412923,0.374772 -0.40882,0.706573 0.0067,0.538663 0.56812,0.878853 1.084124,0.656875 z"
       id="path3328" />
  </g>
</svg>
