<?xml version="1.0" encoding="UTF-8" standalone="no"?>
<!-- Created with Inkscape (http://www.inkscape.org/) -->

<svg
   width="30mm"
   height="30mm"
   viewBox="0 0 30 30"
   version="1.1"
   id="svg5"
   inkscape:version="1.1.1 (3bf5ae0d25, 2021-09-20)"
   sodipodi:docname="home.svg"
   xmlns:inkscape="http://www.inkscape.org/namespaces/inkscape"
   xmlns:sodipodi="http://sodipodi.sourceforge.net/DTD/sodipodi-0.dtd"
   xmlns="http://www.w3.org/2000/svg"
   xmlns:svg="http://www.w3.org/2000/svg">
  <sodipodi:namedview
     id="namedview7"
     pagecolor="#ffffff"
     bordercolor="#666666"
     borderopacity="1.0"
     inkscape:pageshadow="2"
     inkscape:pageopacity="0.0"
     inkscape:pagecheckerboard="0"
     inkscape:document-units="mm"
     showgrid="false"
     inkscape:zoom="4.4750098"
     inkscape:cx="45.027835"
     inkscape:cy="93.519349"
     inkscape:window-width="1920"
     inkscape:window-height="1051"
     inkscape:window-x="-9"
     inkscape:window-y="-9"
     inkscape:window-maximized="1"
     inkscape:current-layer="layer1"
     width="30mm" />
  <defs
     id="defs2" />
  <g
     inkscape:label="Layer 1"
     inkscape:groupmode="layer"
     id="layer1">
    <path
       style="fill:#808080;fill-opacity:1;stroke-width:0.0578692"
       d="M 5.2008745,26.292286 C 4.9722212,26.19199 4.7436906,25.975818 4.6102544,25.733589 4.5087418,25.549304 4.502023,25.288452 4.4882107,20.990569 c -0.00799,-2.501405 0.00507,-4.575181 0.029093,-4.608389 0.070575,-0.09751 10.5524753,-8.6326472 10.6016523,-8.6326472 0.04917,0 10.531071,8.5351362 10.601647,8.6326472 0.02404,0.03321 0.03713,2.106984 0.02908,4.608389 l -0.0146,4.54801 -0.141147,0.243878 c -0.07764,0.134137 -0.245527,0.315478 -0.373095,0.402989 l -0.231953,0.159108 -3.742014,0.01561 -3.742015,0.01564 -0.01498,-3.498591 -0.01498,-3.498594 h -2.355925 -2.355909 l -0.01499,3.497362 -0.01499,3.497357 -3.6788356,-0.0022 c -2.9303118,-0.0017 -3.7143427,-0.0178 -3.8533464,-0.0788 z M 1.7008301,16.658445 C 1.4530964,16.521695 0.35630304,15.222531 0.2891449,14.98629 0.2548985,14.865849 0.2564177,14.736326 0.2933099,14.631649 0.37450776,14.401126 13.658,3.4481989 14.155535,3.2015247 c 0.321021,-0.1591592 0.396439,-0.1727091 0.961286,-0.1727091 0.538233,0 0.651934,0.01817 0.932877,0.1490343 0.209847,0.097748 1.114303,0.8059439 2.628484,2.0581186 1.2697,1.0499953 2.323314,1.9090826 2.341364,1.9090826 0.01804,0 0.03281,-0.8399694 0.03281,-1.8665986 V 3.4118523 l 0.150598,-0.177126 0.150596,-0.1771259 h 2.017855 c 2.250009,0 2.221123,-0.00482 2.332006,0.3902932 0.03845,0.1369927 0.06054,1.5525 0.06131,3.9274364 l 0.0011,3.713247 2.06052,1.689688 c 1.436185,1.177709 2.078058,1.739469 2.118393,1.853987 0.09802,0.27828 -0.02202,0.510834 -0.637224,1.234609 -0.631617,0.743069 -0.858253,0.914331 -1.136957,0.859166 -0.116191,-0.02302 -2.273723,-1.766916 -6.592167,-5.328438 -3.532468,-2.9132506 -6.453134,-5.2814188 -6.494344,-5.2657672 -0.04119,0.015645 -2.910002,2.3672545 -6.3751316,5.2257972 -3.4651293,2.858547 -6.3908463,5.243307 -6.5015907,5.299466 -0.2490932,0.126318 -0.279987,0.126401 -0.5065031,0.0013 z"
       id="path1142" />
  </g>
</svg>
