<?xml version="1.0" encoding="UTF-8" standalone="no"?>
<!-- Created with Inkscape (http://www.inkscape.org/) -->

<svg
   width="30mm"
   height="30mm"
   viewBox="0 0 30 30"
   version="1.1"
   id="svg1076"
   inkscape:version="1.1.1 (3bf5ae0d25, 2021-09-20)"
   sodipodi:docname="run_btn.svg"
   xmlns:inkscape="http://www.inkscape.org/namespaces/inkscape"
   xmlns:sodipodi="http://sodipodi.sourceforge.net/DTD/sodipodi-0.dtd"
   xmlns="http://www.w3.org/2000/svg"
   xmlns:svg="http://www.w3.org/2000/svg">
  <sodipodi:namedview
     id="namedview1078"
     pagecolor="#ffffff"
     bordercolor="#666666"
     borderopacity="1.0"
     inkscape:pageshadow="2"
     inkscape:pageopacity="0.0"
     inkscape:pagecheckerboard="0"
     inkscape:document-units="mm"
     showgrid="false"
     height="30mm"
     inkscape:zoom="3.1643098"
     inkscape:cx="50.721962"
     inkscape:cy="51.670036"
     inkscape:window-width="1920"
     inkscape:window-height="1051"
     inkscape:window-x="-9"
     inkscape:window-y="-9"
     inkscape:window-maximized="1"
     inkscape:current-layer="layer1" />
  <defs
     id="defs1073" />
  <g
     inkscape:label="Layer 1"
     inkscape:groupmode="layer"
     id="layer1">
    <path
       style="fill:#e6e6e6;fill-opacity:1;stroke-width:0.264583"
       d="m 60.504859,102.98023 c 0.181901,-0.0734 0.479557,-0.0734 0.661458,0 0.181901,0.0734 0.03307,0.13346 -0.330729,0.13346 -0.363802,0 -0.51263,-0.0601 -0.330729,-0.13346 z m 2.645833,0 c 0.181901,-0.0734 0.479557,-0.0734 0.661458,0 0.181901,0.0734 0.03307,0.13346 -0.330729,0.13346 -0.363802,0 -0.51263,-0.0601 -0.330729,-0.13346 z M 49.214811,92.417788 c 0.0127,-0.30823 0.07539,-0.37092 0.15985,-0.15985 0.07643,0.19099 0.06703,0.4192 -0.02087,0.50712 -0.08792,0.0879 -0.150453,-0.0684 -0.138965,-0.34727 z M 134.38975,60.474754 c 0,-0.04553 0.38695,-0.432487 0.85989,-0.859895 l 0.8599,-0.777105 -0.7771,0.859895 c -0.72438,0.801545 -0.94269,0.981512 -0.94269,0.777105 z m 4.5495,-9.839083 c 0.005,-0.436563 0.0647,-0.583126 0.13177,-0.325694 0.0671,0.257431 0.0627,0.614619 -0.01,0.793749 -0.0725,0.179131 -0.12736,-0.03149 -0.12197,-0.468055 z M 51.575172,2.778487 c 0,-0.05494 0.208359,-0.263302 0.463021,-0.463021 0.419645,-0.329108 0.429003,-0.319749 0.0999,0.0999 -0.345644,0.440729 -0.562917,0.580887 -0.562917,0.363126 z m 1.852083,-1.852084 c 0,-0.05494 0.208359,-0.263301 0.463021,-0.46302 0.419645,-0.329108 0.429003,-0.31975 0.0999,0.09989 -0.345644,0.440729 -0.562917,0.580887 -0.562917,0.363126 z M 61.4309,-2.331086 c 0.254662,-0.06655 0.671381,-0.06655 0.926042,0 0.254662,0.06655 0.0463,0.121 -0.463021,0.121 -0.509323,0 -0.717682,-0.05445 -0.463021,-0.121 z"
       id="path1173" />
    <path
       style="fill:#008000;fill-opacity:1;stroke-width:0.0740503"
       d="M 5.54974,29.736782 C 4.3403061,29.411627 3.3282864,28.323457 3.0606479,27.060441 2.971022,26.637578 2.9542876,24.786193 2.9536842,15.22942 2.953125,7.6570906 2.9786249,3.7405542 3.0307994,3.4198119 3.3362031,1.5373154 5.1883323,0.20021698 7.0486195,0.5192214 7.3404666,0.56926383 7.7460034,0.68757155 7.9498499,0.78214532 8.4476876,1.0130485 26.140556,12.021362 26.610934,12.392855 c 1.717236,1.356218 1.911291,3.80524 0.420164,5.302623 -0.341447,0.342895 -2.147452,1.490074 -9.63944,6.123054 -6.478846,4.006468 -9.3623517,5.750314 -9.7006047,5.86659 -0.5729778,0.196952 -1.5163099,0.21972 -2.1413374,0.05169 z"
       id="path1169" />
  </g>
</svg>
