<?xml version="1.0" encoding="UTF-8" standalone="no"?>
<!-- Created with Inkscape (http://www.inkscape.org/) -->

<svg
   width="30mm"
   height="30mm"
   viewBox="0 0 30 30"
   version="1.1"
   id="svg5"
   inkscape:version="1.1.1 (3bf5ae0d25, 2021-09-20)"
   sodipodi:docname="verify certificate.svg"
   xmlns:inkscape="http://www.inkscape.org/namespaces/inkscape"
   xmlns:sodipodi="http://sodipodi.sourceforge.net/DTD/sodipodi-0.dtd"
   xmlns="http://www.w3.org/2000/svg"
   xmlns:svg="http://www.w3.org/2000/svg">
  <sodipodi:namedview
     id="namedview7"
     pagecolor="#ffffff"
     bordercolor="#666666"
     borderopacity="1.0"
     inkscape:pageshadow="2"
     inkscape:pageopacity="0.0"
     inkscape:pagecheckerboard="0"
     inkscape:document-units="mm"
     showgrid="false"
     inkscape:zoom="5.6568545"
     inkscape:cx="54.712385"
     inkscape:cy="40.57025"
     inkscape:window-width="1920"
     inkscape:window-height="1051"
     inkscape:window-x="-9"
     inkscape:window-y="-9"
     inkscape:window-maximized="1"
     inkscape:current-layer="layer1"
     width="38mm" />
  <defs
     id="defs2" />
  <g
     inkscape:label="Layer 1"
     inkscape:groupmode="layer"
     id="layer1">
    <path
       style="fill:#808080;fill-opacity:1;stroke-width:0.0621747"
       d="M 23.350792,25.27824 C 23.199664,25.20026 22.524296,24.710636 21.849976,24.190181 L 20.62394,23.2439 h -8.700842 c -8.3648021,0 -8.7154605,-0.0046 -9.0793155,-0.117794 C 1.8587918,22.819542 1.0655042,21.953608 0.85565929,20.955917 0.75709999,20.487324 0.75823389,7.2160065 0.85688129,6.7551044 1.0159854,6.0116703 1.494326,5.3343116 2.167963,4.8985357 2.895008,4.4282097 1.9643543,4.459271 14.713516,4.4798196 l 11.409068,0.01839 0.48374,0.230986 c 0.643199,0.3071279 1.092088,0.7560173 1.399216,1.3992158 l 0.230986,0.48374 0.01798,3.4571322 0.01798,3.457133 0.230716,0.06953 c 0.536363,0.161637 0.946199,0.720793 0.945171,1.289536 -3.06e-4,0.168734 -0.151324,1.778163 -0.335598,3.576508 -0.364398,3.556211 -0.362713,3.54782 -0.793089,3.949901 -0.383884,0.358646 -3.49996,2.723042 -3.777559,2.866312 -0.367318,0.189575 -0.82396,0.18959 -1.191333,3.9e-5 z m 2.418511,-2.711029 c 1.377968,-1.072802 1.628361,-1.292319 1.631149,-1.430019 0.0018,-0.08947 0.136981,-1.505646 0.300374,-3.14706 0.163395,-1.641413 0.275514,-2.998986 0.249155,-3.016828 -0.02636,-0.01784 -0.941212,-0.308033 -2.033007,-0.644871 L 23.931893,13.716 21.969842,14.323201 c -1.079127,0.333961 -1.989965,0.624454 -2.024083,0.64554 -0.04004,0.02474 0.05208,1.156541 0.259751,3.191536 0.288123,2.823353 0.334769,3.165946 0.445911,3.275061 0.06827,0.06703 0.836914,0.666396 1.7081,1.331937 1.316384,1.005648 1.600696,1.198012 1.682951,1.138679 0.05444,-0.03927 0.831511,-0.641701 1.726831,-1.338743 z m -2.862932,-2.913904 c -0.682026,-0.668431 -0.794067,-0.833361 -0.794067,-1.168906 0,-0.175163 0.04821,-0.275131 0.211394,-0.438311 0.180108,-0.180109 0.254405,-0.211395 0.502014,-0.211395 0.268562,0 0.31879,0.02687 0.661793,0.35404 l 0.371173,0.35404 0.992786,-0.991331 0.992785,-0.991331 h 0.303616 c 0.344483,0 0.529886,0.124329 0.666433,0.4469 0.173763,0.410491 0.105747,0.510828 -1.309161,1.931284 l -1.316053,1.321214 h -0.33209 -0.332089 z m -3.803872,1.927418 c -0.07845,-0.503205 -0.658506,-6.381278 -0.658506,-6.672995 0,-0.508071 0.275223,-0.993573 0.683922,-1.206461 0.08549,-0.04453 1.134689,-0.38394 2.331554,-0.754242 1.543226,-0.477464 2.266529,-0.673203 2.48699,-0.673025 0.205495,1.87e-4 0.733281,0.131264 1.556998,0.386744 0.685369,0.212571 1.266927,0.386493 1.292351,0.386493 0.02542,0 0.03823,-1.380182 0.02846,-3.0670714 L 26.806498,6.9130973 26.61833,6.6088307 C 26.501755,6.4203287 26.314368,6.2329719 26.125817,6.1163967 L 25.821472,5.9282287 14.65874,5.9120143 C 2.2408411,5.8939763 3.1363412,5.8635713 2.7009955,6.3180143 2.5787773,6.4455938 2.4267354,6.6479025 2.3631242,6.7675888 2.2523944,6.9759308 2.2474676,7.2752109 2.2474676,13.793337 c 0,5.571288 0.015314,6.851463 0.0843,7.046624 0.1547485,0.43779 0.5658723,0.801611 1.0348454,0.915782 0.1025885,0.02497 3.6933082,0.04827 7.979379,0.05177 l 7.792854,0.0064 z M 4.3907869,20.154458 C 4.0653755,19.93208 4.0121963,19.724436 4.0888257,18.975421 c 0.1354725,-1.324174 0.7227915,-2.560313 1.66789,-3.510432 0.3853983,-0.387446 1.2296066,-0.9965 1.5003553,-1.082432 0.1083103,-0.03438 0.075835,-0.08973 -0.2749542,-0.46861 -1.4193976,-1.533081 -1.3657327,-3.903895 0.121612,-5.3725257 0.6619653,-0.653637 1.3586845,-0.9845398 2.3316411,-1.1074021 1.5379331,-0.194206 3.1444841,0.6753677 3.8575661,2.0879752 0.419151,0.8303336 0.531597,1.8481006 0.302952,2.7420906 -0.164898,0.644743 -0.451543,1.164126 -0.912895,1.654109 l -0.382883,0.406644 0.394366,0.210707 c 0.51349,0.274353 1.215704,0.8664 1.628145,1.372714 0.411158,0.504738 0.902993,1.44678 1.072313,2.053866 0.07106,0.254777 0.158989,0.733853 0.195401,1.064614 0.05821,0.528783 0.0533,0.628565 -0.04065,0.826554 -0.254799,0.536948 -1.041349,0.543615 -1.294107,0.01097 -0.0559,-0.117811 -0.101646,-0.366376 -0.101646,-0.552366 0,-0.185989 -0.05507,-0.553505 -0.122389,-0.816702 -0.311401,-1.217566 -1.15955,-2.271226 -2.253649,-2.799721 -1.610094,-0.777742 -3.3790806,-0.567166 -4.7631753,0.566995 -0.8375072,0.686274 -1.4982227,2.042003 -1.5019992,3.081964 -6.11e-4,0.163529 -0.040843,0.392495 -0.089443,0.508812 -0.1540816,0.368769 -0.7004076,0.528152 -1.0324913,0.301215 z m 6.1893181,-6.519659 c 1.162391,-0.317727 1.930009,-1.678747 1.622907,-2.877484 C 11.861991,9.4261793 10.551298,8.6345162 9.2432674,8.9696183 8.3071803,9.2094325 7.6295563,9.9398088 7.4375127,10.915947 c -0.2524282,1.283067 0.7166245,2.626047 2.0238817,2.804835 0.4174532,0.05709 0.6648276,0.03808 1.1187106,-0.08598 z M 20.24687,9.3322967 C 19.893425,9.0120015 19.89719,8.5326329 20.25547,8.2311195 l 0.194097,-0.1633231 1.738064,0.018274 1.738064,0.018274 0.181338,0.2030491 c 0.144434,0.1617265 0.181338,0.2610532 0.181338,0.4880719 0,0.2412436 -0.03247,0.3174923 -0.211394,0.4964169 l -0.211345,0.211395 h -1.715043 -1.715042 z"
       id="path4683" />
  </g>
</svg>
